<svg width="42" height="50" viewBox="0 0 42 50" fill="none" xmlns="http://www.w3.org/2000/svg">
    <path fill-rule="evenodd" clip-rule="evenodd" d="M26.364 0c.32 0 .622.048.923.148 1.473.485 2.16 1.944 2.824 3.354.475 1.008.841 1.74 1.27 2.056.431.319 1.23.447 2.311.594 1.461.2 3.113.425 4.01 1.678.876 1.219.583 2.85.325 4.288-.17.945-.342 1.913-.151 2.508.143.447.605.947 1.253 1.58l.251.245c1.072 1.032 2.287 2.2 2.287 3.766 0 1.457-1.057 2.573-2.067 3.555l-.215.208c-.79.762-1.35 1.33-1.51 1.832-.19.59-.017 1.558.15 2.492.272 1.523.55 3.082-.322 4.3-.809 1.127-2.252 1.422-3.542 1.61a.535.535 0 0 0-.398.277.51.51 0 0 0-.005.476l4.503 8.695c.193.374.144.825-.125 1.15a1.125 1.125 0 0 1-1.128.371l-5.298-1.285a.542.542 0 0 0-.613.273l-2.7 5.237c-.185.36-.572.591-.986.592h-.001c-.42 0-.798-.227-.987-.59l-2.478-4.787a1.034 1.034 0 0 1-.061-.819c.093-.271.29-.491.553-.62.156-.075.322-.113.494-.113.421 0 .8.226.988.59l1.005 1.941a.54.54 0 0 0 .483.289.541.541 0 0 0 .482-.29l1.821-3.532a1.12 1.12 0 0 1 1.255-.56l3.1.75a.548.548 0 0 0 .553-.18.51.51 0 0 0 .06-.562l-2.996-5.786a.541.541 0 0 0-.47-.288H31.2a.544.544 0 0 0-.472.268c-.214.372-.422.805-.617 1.217-.665 1.411-1.352 2.871-2.825 3.358-.299.098-.6.147-.919.147-1.117 0-2.249-.619-3.246-1.164-.565-.308-1.193-.65-1.714-.814a.541.541 0 0 0-.65.264l-5.513 10.69a1.104 1.104 0 0 1-.988.591c-.421 0-.799-.227-.988-.593l-2.7-5.236a.542.542 0 0 0-.612-.273L4.66 45.183a1.133 1.133 0 0 1-1.13-.37 1.046 1.046 0 0 1-.124-1.15l4.504-8.697a.51.51 0 0 0-.004-.476.536.536 0 0 0-.4-.276c-1.288-.188-2.732-.483-3.542-1.612-.872-1.217-.593-2.778-.325-4.286.202-1.116.33-1.949.153-2.506-.16-.5-.72-1.068-1.496-1.815C1.213 22.948 0 21.778 0 20.217c0-1.458 1.057-2.575 2.068-3.556l.215-.209c.786-.757 1.35-1.326 1.51-1.83.177-.555.048-1.389-.154-2.505-.268-1.51-.547-3.07.325-4.287.897-1.253 2.55-1.478 4.007-1.677 1.085-.148 1.884-.276 2.314-.595.43-.316.797-1.049 1.269-2.05.665-1.415 1.352-2.875 2.827-3.36.3-.1.6-.148.92-.148 1.119 0 2.248.617 3.244 1.162.99.54 1.728.919 2.288.919.56 0 1.299-.379 2.28-.914C24.172.59 25.253 0 26.364 0zM10.466 35.443h-.008a.543.543 0 0 0-.474.289l-2.996 5.785a.51.51 0 0 0 .061.562.548.548 0 0 0 .552.18l3.1-.75a1.12 1.12 0 0 1 1.256.56l1.817 3.528c.092.177.28.29.483.29a.541.541 0 0 0 .482-.29l2.4-4.654a.512.512 0 0 0-.073-.576.55.55 0 0 0-.577-.156c-.48.153-.846.222-1.188.222-.32 0-.62-.049-.92-.147-1.474-.487-2.161-1.947-2.826-3.358a17.477 17.477 0 0 0-.617-1.217.542.542 0 0 0-.472-.268zM26.335 2.141c-.427 0-1.072.308-2.111.879-1.048.57-2.209 1.204-3.391 1.204-1.185 0-2.346-.634-3.37-1.193-1.054-.576-1.707-.889-2.136-.889a.821.821 0 0 0-.237.035c-.484.16-.878.842-1.525 2.217-.513 1.086-1.04 2.203-1.942 2.87-.922.681-2.207.856-3.342 1.011-1.49.203-2.205.364-2.502.778-.304.42-.23 1.205.038 2.698.212 1.19.432 2.42.084 3.508-.3.939-1.024 1.707-1.776 2.438l-.283.273c-.958.925-1.633 1.625-1.633 2.247 0 .571.569 1.208 1.4 2.02l.233.227c.85.818 1.723 1.66 2.06 2.71.347 1.088.127 2.316-.085 3.505-.268 1.495-.342 2.28-.038 2.7.295.412 1.006.572 2.49.777 1.145.156 2.43.331 3.355 1.015.902.665 1.429 1.781 1.938 2.862.65 1.38 1.043 2.063 1.53 2.224l.027.008a.825.825 0 0 0 .22.028c.421 0 1.01-.28 2.017-.833l.106-.059c1.028-.56 2.19-1.193 3.37-1.193 1.183 0 2.345.633 3.37 1.193 1.189.649 1.769.89 2.14.89.073 0 .143-.01.207-.026l.03-.009c.435-.144.792-.663 1.523-2.22.512-1.084 1.039-2.2 1.941-2.866.92-.681 2.205-.857 3.337-1.012 1.497-.205 2.211-.365 2.509-.777.303-.423.228-1.207-.039-2.698-.213-1.192-.432-2.42-.086-3.508.338-1.05 1.211-1.893 2.056-2.708.96-.925 1.638-1.627 1.638-2.25 0-.57-.566-1.203-1.393-2.012l-.231-.225c-.855-.825-1.73-1.668-2.068-2.72-.348-1.087-.128-2.317.084-3.506.267-1.494.342-2.279.04-2.7-.299-.415-1.014-.576-2.505-.779-1.134-.155-2.42-.33-3.343-1.012-.9-.665-1.427-1.781-1.937-2.86-.65-1.383-1.042-2.066-1.528-2.226l-.026-.009a.837.837 0 0 0-.216-.027zm-5.502 5.838c6.955 0 12.613 5.49 12.613 12.238 0 6.747-5.658 12.237-12.613 12.237-6.955 0-12.613-5.49-12.613-12.237 0-6.749 5.658-12.238 12.613-12.238zm0 2.143c-5.737 0-10.404 4.528-10.404 10.095 0 5.566 4.667 10.094 10.404 10.094s10.404-4.528 10.404-10.094c0-5.567-4.667-10.095-10.404-10.095zm4.932 5.832c.296 0 .573.112.781.314a1.051 1.051 0 0 1 0 1.515l-6.576 6.38a1.112 1.112 0 0 1-.78.315c-.296 0-.573-.111-.782-.314l-3.288-3.19a1.05 1.05 0 0 1 0-1.516c.209-.202.486-.313.781-.313.295 0 .573.111.781.313l2.126 2.063a.552.552 0 0 0 .762 0l5.415-5.253c.208-.202.486-.314.78-.314z" fill="#EB5976"/>
</svg>
