<svg width="46" height="45" viewBox="0 0 46 45" fill="none" xmlns="http://www.w3.org/2000/svg">
    <path d="M45.248 4.406H27.529a.75.75 0 0 0-.75.75v3.357a.75.75 0 0 0 1.5 0V5.906h16.219V43.5h-7.125V14.587a.75.75 0 0 0-.537-.72l-15.282-4.51a.75.75 0 0 0-.962.718v2.672a.75.75 0 0 0 1.5 0v-1.668l13.781 4.069V43.5h-3.75V27.937a.75.75 0 0 0-.75-.75h-2.39a.75.75 0 0 0 0 1.5h1.64V43.5h-4.219V16.687a.75.75 0 0 0-.75-.75H7.467a.75.75 0 0 0-.75.75V43.5H2.498V28.687h1.67a.75.75 0 0 0 0-1.5h-2.42a.75.75 0 0 0-.75.75V44.25c0 .414.336.75.75.75h43.5a.75.75 0 0 0 .75-.75V5.156a.75.75 0 0 0-.75-.75zM12.998 43.5v-5.438h7.125V43.5h-7.125zm8.625 0v-6.188a.75.75 0 0 0-.75-.75h-8.625a.75.75 0 0 0-.75.75V43.5H8.217V17.437h16.687V43.5h-3.281z" fill="#222"/>
    <path d="M41.31 9.375h-6.64a.75.75 0 0 0 0 1.5h6.64a.75.75 0 0 0 0-1.5zM41.31 16.875h-1.407a.75.75 0 0 0 0 1.5h1.407a.75.75 0 0 0 0-1.5zM41.31 23.437h-1.407a.75.75 0 0 0 0 1.5h1.407a.75.75 0 0 0 0-1.5zM41.31 30h-1.407a.75.75 0 0 0 0 1.5h1.407a.75.75 0 0 0 0-1.5zM41.31 36.563h-1.407a.75.75 0 0 0 0 1.5h1.407a.75.75 0 0 0 0-1.5zM32.496 20.719a.75.75 0 0 0 0-1.5H30.81a.75.75 0 0 0 0 1.5h1.687zM16.56 20.531a.75.75 0 0 0-.75.75V33.47a.75.75 0 0 0 1.5 0V21.28a.75.75 0 0 0-.75-.75zM11.871 21.375a.75.75 0 0 0-.75.75v10.5a.75.75 0 0 0 1.5 0v-10.5a.75.75 0 0 0-.75-.75zM21.249 21.375a.75.75 0 0 0-.75.75v10.5a.75.75 0 0 0 1.5 0v-10.5a.75.75 0 0 0-.75-.75zM5.578 10.219h7.695a3.306 3.306 0 0 0 3.302-3.302 3.306 3.306 0 0 0-3.302-3.302c-1.051 0-2.049.508-2.67 1.358a.75.75 0 0 0 1.213.884 1.804 1.804 0 0 1 3.26 1.06c0 .993-.81 1.802-1.803 1.802H5.578c-.737 0-1.337-.6-1.337-1.337 0-.716.568-1.353 1.406-1.335a.75.75 0 0 0 .746-.922 2.947 2.947 0 0 1 4.302-3.252.75.75 0 0 0 .732-1.31 4.449 4.449 0 0 0-6.609 4.09 2.827 2.827 0 0 0-2.077 2.73 2.84 2.84 0 0 0 2.837 2.836z" fill="#222"/>
</svg>
