<svg width="100" height="100" viewBox="0 0 100 100" fill="none" xmlns="http://www.w3.org/2000/svg">
    <path fill-rule="evenodd" clip-rule="evenodd" d="M93.827 46.218c-1.124-5.034-.659-10.134-1.487-15.182a17.044 17.044 0 0 0-5.59-10.112c-4.684-4.132-9.998-4.472-15.659-5.525-6.245-1.162-9.615-5.783-14.301-9.939-8.87-7.864-23.202-7.754-29.607 3.755-3.193 5.736-3.43 12.799-3.924 19.322l-.862 11.394c-.215 2.839-.07 6.583-2.363 8.488-2.07 1.72-5.035 1.518-7.304 2.885-2.172 1.308-3.903 3.38-5.148 5.723-3.04 5.727-2.888 12.496-1.637 18.796l93.393-.092c1.704-10.282-3.353-19.838-5.511-29.513z" fill="#DEDEDE"/>
    <path fill-rule="evenodd" clip-rule="evenodd" d="M5.064 73.214c.121 5.511 1.497 13.034 5.822 16.934 3.308 2.981 9.152 4.422 13.825 4.647 4.674.224 9.37-.296 14.035.038 7.16.513 12.201 1.186 19.08 3.048 6.88 1.862 14.347 3.096 21.177 1.09 4.31-1.264 8.142-3.811 10.754-7.148 1.492-1.905 2.59-4.046 4.155-5.903 1.567-1.857 3.585-3.408 4.903-5.417 1.318-2.008 1.772-4.763.126-6.565l-93.877-.724z" fill="#EDEDED"/>
    <path fill-rule="evenodd" clip-rule="evenodd" d="M61.404 75.6h1.25l-2.945-30.813h-1.25L61.404 75.6zM31.989 75.6h-1.25l2.945-30.813h1.25L31.989 75.6z" fill="#F8B374"/>
    <path fill-rule="evenodd" clip-rule="evenodd" d="M31.612 50.22h29.76v-5.35h-29.76v5.35z" fill="#D37C2C"/>
    <path fill-rule="evenodd" clip-rule="evenodd" d="M31.612 47.774h29.76V44.87h-29.76v2.904z" fill="#F8B374"/>
    <path fill-rule="evenodd" clip-rule="evenodd" d="M27.462 45.431h38.66v-1.854h-38.66v1.854z" fill="#D37C2C"/>
    <path fill-rule="evenodd" clip-rule="evenodd" d="M63.852 80.727h1.457l-3.435-35.94h-1.457l3.435 35.94zM29.541 80.727h-1.457l3.435-35.94h1.457l-3.435 35.94z" fill="#D37C2C"/>
    <path fill-rule="evenodd" clip-rule="evenodd" d="M29.331 17.146h9.867V5.22h-9.867v11.926zM42.062 26.062h9.867V14.137h-9.867v11.925z" fill="#FFFFFE"/>
    <path fill-rule="evenodd" clip-rule="evenodd" d="M77.892 80.256c.205-.514-.04-1.367-.134-1.905-.108-.618-.17-1.014-.112-1.56-.895-.028-2.368.017-3.263-.011.162.496-.23 1.02-.74 1.292-.51.271-1.12.357-1.702.485-.582.128-1.185.322-1.545.735-.126.144-.22.317-.22.497 0 .07.02.402.05.467h7.666z" fill="#363636"/>
    <path fill-rule="evenodd" clip-rule="evenodd" d="M70.784 44.115a15.774 15.774 0 0 0 5.496-1.988c1.439 3.228 1.72 6.897 1.59 10.458-.128 3.562-.643 7.102-.704 10.666-.078 4.629.23 9.06.915 13.634-1.477.3-2.638.424-4.097.035-1.983-10.828-3.976-21.808-3.2-32.805z" fill="#1C2F59"/>
    <path fill-rule="evenodd" clip-rule="evenodd" d="M74.074 82.541c.203-.514-.042-1.367-.135-1.905-.108-.618-.17-1.014-.113-1.56-.894-.028-2.368.017-3.262-.011.161.496-.23 1.02-.74 1.292-.51.271-1.12.357-1.703.485-.582.127-1.184.323-1.545.735-.126.144-.219.317-.22.497 0 .07.02.402.05.467h7.668z" fill="#363636"/>
    <path fill-rule="evenodd" clip-rule="evenodd" d="M75.49 42.475c1.238 3.84.715 8.025.252 12.05-.977 8.488-1.078 16.951-1.401 25.494-.979-.061-3.04-.23-4.018-.292-1.549-11.896-2.57-23.667-2.51-35.673 2.096.384 4.275.258 6.318-.367l1.358-1.212z" fill="#2C457E"/>
    <path fill-rule="evenodd" clip-rule="evenodd" d="M66.986 27.946c-.505-.496-1.322-.448-1.952-.145-.764.368-1.361 1.04-1.821 1.778-.46.738-.8 1.55-1.184 2.336-.945 1.93-1.429 1.727-2.881 3.271a21.989 21.989 0 0 1-6.937-4.461c-.095-.454-.467-.824-.494-1.29-.006-.094.003-.191-.026-.28-.03-.09-.117-.168-.204-.143-.113.033-.127.19-.16.308-.076.266-.354.424-.617.43-.265.004-.516-.113-.748-.244-.233-.13-.462-.28-.718-.348-.16-.043-.344-.047-.472.061-.128.107-.166.29-.194.46-.112.648-.224 1.372.114 1.928.291.48.901.752 1.488.851.236.04.474.048.713.051 1.754 3.176 4.85 5.57 7.725 7.774a1.304 1.304 0 0 0 1.64-.036c1.74-1.451 2.908-2.611 4.51-4.54 1.84-2.215 2.51-2.96 2.693-5.894.04-.665-.011-1.411-.475-1.867z" fill="#E7C59B"/>
    <path fill-rule="evenodd" clip-rule="evenodd" d="M65.154 34.824a36.862 36.862 0 0 1-3.549 2.77c-.903.62-1.884 1.214-2.962 1.258-1.154.047-2.248-.549-3.17-1.277-.419-.33-.824-.704-1.063-1.192-.238-.488-.278-1.116.018-1.568.238-.363.658-.56 1.076-.603.418-.045.837.046 1.243.161.867.244 1.706.597 2.584.8.877.203 1.821.246 2.65-.117.672-.295 1.218-.834 1.852-1.21.633-.377 1.46-.572 2.07-.152l-.75 1.13z" fill="#D2AE80"/>
    <path fill-rule="evenodd" clip-rule="evenodd" d="m46.285 25.654-1.49-1.192 1.057-1.458 1.49 1.191-1.057 1.46zM45.145 22.837l-.568-.139-.401.555.277.538.36.288.692-.955-.36-.287z" fill="#363636"/>
    <path fill-rule="evenodd" clip-rule="evenodd" d="m47.605 25.942-3.24-2.592.352-.486 3.24 2.592-.352.486z" fill="#363636"/>
    <path fill-rule="evenodd" clip-rule="evenodd" d="m42.846 21.996 1.945 1.555.224-.31-1.945-1.555-.224.31z" fill="#363636"/>
    <path fill-rule="evenodd" clip-rule="evenodd" d="M47.094 27.158c.408.432.853.826 1.329 1.174.317.231.68.5.713.904.023.283-.13.546-.277.785-.265.43-.53.86-.794 1.292-.156.252-.318.54-.26.835.05.255.252.441.441.608.2.174.41.355.666.402.238.043.487-.04.684-.189.196-.15.343-.36.459-.583.365-.704.438-1.546.824-2.238.203-.362.485-.669.713-1.015.228-.346.407-.758.358-1.176-.037-.309-.195-.59-.396-.818-.202-.228-.446-.409-.688-.588l-2.412-1.782c-.257-.19-.558-.39-.864-.31-.191.049-.342.2-.476.35-.338.378-.656.856-.59 1.37.05.386.308.703.57.98z" fill="#686868"/>
    <path fill-rule="evenodd" clip-rule="evenodd" d="M51.87 30.165c-.195-.346-.082-.84-.34-1.137-.116-.134-.285-.198-.447-.258l-1.117-.412a.252.252 0 0 0-.121-.022c-.066.01-.117.074-.13.144a.39.39 0 0 0 .027.207.862.862 0 0 0 .287.388c.11.083.244.14.325.254.092.13.098.304.075.463-.024.158-.074.313-.08.474-.014.313.133.607.285.876.12.212.255.429.46.547.22.126.502.116.712-.023.21-.14.34-.404.325-.665l-.26-.836zM48.74 29.177c-.118 0-.251.008-.322.106-.056.077-.051.187-.011.274.04.086.108.154.178.217.094.084.193.165.304.222a.588.588 0 0 0 .36.065c.062-.01.125-.036.157-.093.045-.08.007-.183-.04-.262-.17-.279-.311-.528-.627-.529zM48.426 29.76c-.085-.042-.193.016-.231.105a.333.333 0 0 0 .027.282.919.919 0 0 0 .185.218l.2.191c.087.084.2.172.311.132.08-.029.129-.122.13-.211a.488.488 0 0 0-.08-.252c-.1-.168-.37-.383-.542-.466z" fill="#E7C59B"/>
    <path fill-rule="evenodd" clip-rule="evenodd" d="M48.66 31.233c.106-.018.192-.11.221-.218a.445.445 0 0 0-.045-.325.7.7 0 0 0-.225-.234c-.081-.055-.177-.099-.27-.074-.084.022-.148.098-.178.183a.465.465 0 0 0 .018.331.63.63 0 0 0 .21.253c.08.057.175.1.27.084z" fill="#E7C59B"/>
    <path fill-rule="evenodd" clip-rule="evenodd" d="M48.883 31.447a.613.613 0 0 0-.48-.43c-.051-.007-.105-.006-.149.022-.06.038-.082.122-.069.195a.425.425 0 0 0 .102.191c.078.093.169.172.27.235.047.03.098.056.154.063a.17.17 0 0 0 .152-.054c.048-.059.042-.148.02-.222zM66.536 28.319c-2.403-.966-3.552-1.223-5.045-3.543-.52.639-1.752 1.527-2.462 1.914a21.924 21.924 0 0 1 2.67 5.633 17.313 17.313 0 0 0 4.526-3.462l.31-.542z" fill="#E7C59B"/>
    <path fill-rule="evenodd" clip-rule="evenodd" d="M60.663 26.844a4.263 4.263 0 0 0 1.027-3.326c-.157-1.193-.882-2.298-1.906-2.84-1.024-.544-2.321-.491-3.282.166a2.818 2.818 0 0 0-.967 1.112c-.271.577-.319 1.243-.283 1.886a7.806 7.806 0 0 0 1.286 3.877c.281.42.653.84 1.139.895.394.045.771-.16 1.118-.365.67-.395 1.343-.814 1.868-1.405z" fill="#E7C59B"/>
    <path fill-rule="evenodd" clip-rule="evenodd" d="M53.017 20.493c.325.187.72-.003 1.053-.172a9.744 9.744 0 0 1 2.91-.946c.614-.097 1.264-.129 1.836.126.209.092.403.222.62.285.164.049.336.057.503.09.636.124 1.182.591 1.516 1.173.333.583.47 1.27.492 1.95.022.678-.064 1.355-.151 2.028-.42-.037-.81-.018-1.182-.056a.914.914 0 0 1-.804-1.036 2.113 2.113 0 0 0-.067-.922c-.117-.395-.658-.46-1.05-.424-.392.036-.1 1.57-.484 1.74-.344-.244-.703-1.563-1.047-1.805a3.48 3.48 0 0 1-2.211.242 3.606 3.606 0 0 1-1.928-1.165l.77-.006c-.433-.166-.752-.619-.776-1.102z" fill="#363636"/>
    <path fill-rule="evenodd" clip-rule="evenodd" d="M63.37 25.85c.137.042.246.15.349.255l1.466 1.495a9.433 9.433 0 0 0-4.624 2.573c-.01-1.651.846-3.28 2.182-4.152.189-.123.412-.235.626-.17z" fill="#D74663"/>
    <path fill-rule="evenodd" clip-rule="evenodd" d="M61.766 28.567c.469-.766 1.16-1.43 2.005-1.63.922-.216 1.875.144 2.725.578 2.718 1.386 5.018 3.59 6.794 6.156 1.776 2.568 3.046 5.493 3.975 8.513-2.424 2.543-6.103 3.98-9.528 3.94-.25-2.81-1.075-5.505-2.805-7.663-1.293-1.612-2.971-2.983-3.671-4.957-.57-1.608-.377-3.493.505-4.937z" fill="#EB5976"/>
    <path fill-rule="evenodd" clip-rule="evenodd" d="M66.91 38.01c-.723-.587-1.605-.908-2.401-1.378-.797-.47-1.558-1.17-1.73-2.113-.18-.986.331-1.97.958-2.728.627-.757 1.392-1.4 1.89-2.256 2.657 2.392 4.18 5.913 5.021 9.48.239 1.01.414 2.136-.073 3.04-1.588-.858-2.252-2.899-3.666-4.045z" fill="#D74663"/>
    <path fill-rule="evenodd" clip-rule="evenodd" d="M65.699 38.472a3.941 3.941 0 0 1-.638.344c1.557 2.13 2.326 4.715 2.567 7.41 3.492.04 7.245-1.425 9.716-4.018a40.5 40.5 0 0 0-.49-1.48 25.24 25.24 0 0 1-3.941 2.4 3.15 3.15 0 0 1-4.284-1.556c-.464-1.04-1.068-1.963-1.947-2.957a.751.751 0 0 0-.983-.143z" fill="#2C457E"/>
    <path fill-rule="evenodd" clip-rule="evenodd" d="M70.505 32.021c-1.373-1.971-2.927-4.315-5.102-5.012 2.109 2.215 4.247 4.538 5.839 7.186 1.593 2.648 2.767 5.615 3.108 8.727l.95-.501c-.537-3.851-2.609-7.259-4.795-10.4z" fill="#2C457E"/>
    <path fill-rule="evenodd" clip-rule="evenodd" d="M60.79 36.552c-.973-1.196-1.947-2.377-2.92-3.705-3.366 3.703-7.402 6.738-12.036 8.216-.644-.35-1.279-.705-1.985-.641-.785.07-1.437.657-1.964 1.274-.528.616-1.01 1.306-1.697 1.714.527.275 1.155-.032 1.643-.379s1.01-.76 1.595-.696c.533.057.947.494 1.427.743a2.163 2.163 0 0 0 1.777.09c.257-.102.489-.261.692-.453 4.799-1.128 9.332-3.339 13.468-6.163z" fill="#E7C59B"/>
    <path fill-rule="evenodd" clip-rule="evenodd" d="M65.935 29.606c-.23-1.182-1.217-2.23-2.366-2.24-.675-.007-1.32.328-1.838.782s-.93 1.025-1.349 1.582a43.992 43.992 0 0 1-2.592 3.134c.993 1.354 1.986 2.559 2.979 3.778.59-.402 1.172-.815 1.745-1.24.938-.696 1.872-1.435 2.555-2.404.684-.969 1.096-2.21.866-3.392z" fill="#EB5976"/>
    <path fill-rule="evenodd" clip-rule="evenodd" d="M23.924 91.402c-.217-.546.043-1.45.142-2.02.114-.655.18-1.075.12-1.654.948-.03 2.51.018 3.458-.011-.17.525.243 1.081.784 1.369.541.288 1.188.379 1.805.514s1.256.342 1.638.78c.134.152.232.335.233.526 0 .074-.02.427-.053.496h-8.127z" fill="#363636"/>
    <path fill-rule="evenodd" clip-rule="evenodd" d="M26.838 63.677c.024-6.959.3-13.031-.796-19.894l-8.318.891c-.445 5.506 1.01 11.29 1.873 16.746 1.441 9.1 1.982 17.034 3.82 26.749 1.468.058 3.74.217 5.208.275-1.633-7.496-1.813-17.077-1.787-24.767z" fill="#1C2F59"/>
    <path fill-rule="evenodd" clip-rule="evenodd" d="M13.494 92.443c.548.005 1.096-.012 1.642-.05.3-.02.635-.067.817-.318.161-.224.117-.532.117-.813-.002-1.17.104-2.173-.333-3.592a6.275 6.275 0 0 1-2.276-.321c.188.374.089.841-.11 1.209-.2.367-.487.672-.707 1.025a3.228 3.228 0 0 0-.479 1.539c-.018.371.043.78.304 1.033.266.259.663.285 1.025.288z" fill="#363636"/>
    <path fill-rule="evenodd" clip-rule="evenodd" d="M12.414 44.675a172.488 172.488 0 0 0 .553 44.31l4.21-.407c.068-9.156 1.21-18.261 2.351-27.339l2.082-16.564h-9.196z" fill="#2C457E"/>
    <path fill-rule="evenodd" clip-rule="evenodd" d="M29.91 27.338a34.417 34.417 0 0 1-3.378-4.69c-.367-.615-.656-1.369-1.244-1.653-.75-.364-1.645.168-2.083.981-.549 1.02-.517 2.37-.135 3.491.383 1.123 1.072 2.055 1.795 2.905a35.844 35.844 0 0 0 2.77 2.916c.457-1.527 1.11-2.939 2.275-3.95z" fill="#D74663"/>
    <path fill-rule="evenodd" clip-rule="evenodd" d="M41.5 38.939a11.483 11.483 0 0 0 2.014-.324c-.382-.436-.668-.954-1.037-1.402-.369-.449-.857-.838-1.419-.88-.434-.033-.855.146-1.286.222-.093.017-.188.024-.283.032-3.473-2.563-6.964-6.182-9.579-9.249-1.166 1.011-1.817 2.423-2.274 3.95 2.894 2.72 6.038 5.497 9.578 7.247.064.227.175.43.379.513.12.048.254.044.383.04l1.742-.058c.521-.017 1.043-.04 1.564-.077.096.02.172.019.219-.014z" fill="#E7C59B"/>
    <path fill-rule="evenodd" clip-rule="evenodd" d="M25.624 21.017c.44.43.644 1.087.776 1.724.737 3.576-.253 7.274-.572 10.926-.344 3.922-.029 7.944.72 12.635-5.056.647-9.593.559-14.678.335.572-3.847-.203-8.454-.813-12.294-.61-3.84-1.023-7.91.24-11.544.208-.596.47-1.19.898-1.615.583-.577 1.003-.845 1.772-.976 3.196-.546 6.854-.445 10.045.138.573.105 1.174.243 1.612.67z" fill="#EB5976"/>
    <path fill-rule="evenodd" clip-rule="evenodd" d="M12.22 45.925h3.271c-.886-8.11.285-16.68-4.02-22.948-1.425 3.623-.957 7.68-.268 11.506.642 3.563 1.428 7.78 1.018 11.442zM17.993 20.023c-.496.116-1.007.239-1.44.59a2.1 2.1 0 0 0-.748 1.679c.029.586.318 1.085.63 1.487.79 1.014 1.822 1.67 2.897 1.84 1.076.17 2.19-.145 3.127-.884.47-.37.909-1.292 1.132-1.965.224-.674.183-1.125-.204-1.64-.25-.332-.598-.476-.935-.589a9.633 9.633 0 0 0-5.167-.288l.708-.23z" fill="#D74663"/>
    <path fill-rule="evenodd" clip-rule="evenodd" d="m6.227 39.5-.002-.011c1.407-3.4 3.44-6.766 5.496-9.633-1.06-1.574-2.396-2.844-4.075-3.52a26.522 26.522 0 0 0-1.448 2.709c-1.44 3.12-2.367 6.54-3.076 10-.314-.045-.656.07-.91.282-.349.288-.567.713-.762 1.13-.195.42-.384.853-.694 1.186-.241.258-.565.473-.645.825-.105.462.263.881.6 1.2.217.206.465.425.758.417.197-.006.413-.11.576.005.098.069.14.197.22.287.207.236.579.147.848-.004.27-.15.553-.353.852-.29.137.027.263.11.402.11.167 0 .315-.122.406-.27.09-.147.135-.319.194-.483.149-.422.388-.809.695-1.123.29-.298.28-.17.405-.577.12-.39.1-1.405.082-2.071l.071-.17.007.001z" fill="#E7C59B"/>
    <path fill-rule="evenodd" clip-rule="evenodd" d="M14.938 25.638c.461-.91.732-2.007.54-3.044-.192-1.038-.93-1.966-1.821-2.025-.63-.042-1.225.33-1.759.73-1.913 1.431-3.527 3.36-4.859 5.542 1.775.716 3.186 2.057 4.306 3.72a58.148 58.148 0 0 1 1.88-2.485c.616-.769 1.254-1.528 1.713-2.438z" fill="#EB5976"/>
    <path fill-rule="evenodd" clip-rule="evenodd" d="M17.646 20.471c-.3.113-.603.262-.796.586-.276.463-.266 1.228-.037 1.862a3.061 3.061 0 0 0 1.093 1.453c.448.314.928.456 1.397.53.709.116 1.423.086 2.046-.235.623-.321 1.151-.955 1.375-1.844.153-.609.122-1.442-.274-1.94-.22-.278-.505-.392-.776-.477-1.38-.433-2.77-.41-4.028.065z" fill="#E7C59B"/>
    <path fill-rule="evenodd" clip-rule="evenodd" d="M18.56 14.461a.95.95 0 0 0-.516.818c0 2.006-.557 4.88-1.038 6.339a8.077 8.077 0 0 0 5.018.43l-.228-5.365c-.787-.096-1.98-2.157-2.766-2.252-.158-.02-.322-.038-.47.03z" fill="#E7C59B"/>
    <path fill-rule="evenodd" clip-rule="evenodd" d="M19.03 14.43c-.052-.006-.104-.008-.156-.011-1.955 2.804.267 5.535 3.08 5.974l-.158-3.71c-.787-.096-1.98-2.157-2.766-2.252z" fill="#D2AE80"/>
    <path fill-rule="evenodd" clip-rule="evenodd" d="M19.623 8.856c1-.236 3.058-.166 4.052.09.666.171.684 2.153.955 2.8.14.337-.322.862-.318 1.228.01 1.01.24.826.06 1.82-.308 1.686-.602 2.728-1.85 3.864-.664.604-2.107.263-2.765-.347-.591-.549-1.31-1.026-1.673-1.755-.59-1.183-.872-2.508-.97-3.833-.068-.926-.028-1.926.505-2.676.465-.654 1.236-1.01 2.005-1.191z" fill="#E7C59B"/>
    <path fill-rule="evenodd" clip-rule="evenodd" d="m26.07 8.439-.568.895c.345.087.717.048 1.039-.11-.244.916-1.006 1.614-1.862 1.919-.857.305-1.795.261-2.681.065-.375-.083-.76-.193-1.138-.116-.707.146-1.138.883-1.48 1.55-.225-.316-.524-.67-.897-.621-.287.038-.498.313-.59.601-.123.387-.08.828.114 1.18.197.358.551.67.527 1.082-.03.528-.683.878-.631 1.404-.988-1.381-1.146-3.21-1.268-4.932-.025-.343-.034-.73.192-.98.196-.214.52-.263.704-.49.2-.249.16-.615.24-.93.114-.447.477-.787.881-.97.404-.182.85-.231 1.288-.274.954-.093 1.934-.162 2.856.113.548.164 1.06.445 1.604.624s1.156.248 1.67-.01z" fill="#363636"/>
    <path fill-rule="evenodd" clip-rule="evenodd" d="M3.703 40.22h42.804v-2.666H3.703v2.666z" fill="#B6B6B6"/>
    <path fill-rule="evenodd" clip-rule="evenodd" d="M8.718 38.974h.646v-1.421h-.646v1.42zM10.15 38.974h.646v-1.421h-.646v1.42zM11.583 38.974h.646v-1.421h-.646v1.42zM13.015 38.974h.646v-1.421h-.646v1.42zM14.448 38.974h.646v-1.421h-.646v1.42zM15.88 38.974h.645v-1.421h-.646v1.42zM17.312 38.974h.646v-1.421h-.646v1.42zM18.744 38.974h.646v-1.421h-.646v1.42zM20.177 38.974h.646v-1.421h-.646v1.42zM21.609 38.974h.645v-1.421h-.645v1.42zM23.04 38.974h.647v-1.421h-.646v1.42zM24.473 38.974h.646v-1.421h-.646v1.42zM25.905 38.974h.646v-1.421h-.646v1.42zM27.338 38.974h.646v-1.421h-.646v1.42zM28.77 38.974h.645v-1.421h-.646v1.42zM30.202 38.974h.646v-1.421h-.646v1.42zM31.634 38.974h.646v-1.421h-.646v1.42zM33.067 38.974h.646v-1.421h-.646v1.42zM34.499 38.974h.646v-1.421h-.646v1.42zM35.931 38.974h.646v-1.421h-.646v1.42zM37.363 38.974h.646v-1.421h-.646v1.42zM38.796 38.974h.645v-1.421h-.645v1.42zM40.228 38.974h.646v-1.421h-.646v1.42zM41.66 38.974h.646v-1.421h-.646v1.42z" fill="#979999"/>
    <path fill-rule="evenodd" clip-rule="evenodd" d="M.566 42.892c.298.284.7.415 1.093.503 1.005.226 2.157.188 2.928-.527.688-.638.91-1.65 1.096-2.595.12-.61.232-1.276-.039-1.828-.3-.611-.993-.9-1.645-.959a3.665 3.665 0 0 0-2.865 1.03 3.89 3.89 0 0 0-1.128 2.942c.03.53.187 1.078.56 1.434z" fill="#363636"/>
    <path fill-rule="evenodd" clip-rule="evenodd" d="M4.63 40.556c0 1.053-.813 1.907-1.815 1.907S1 41.608 1 40.555s.813-1.907 1.815-1.907 1.814.853 1.814 1.907z" fill="#979999"/>
    <path fill-rule="evenodd" clip-rule="evenodd" d="M39.167 37.178c-.009-.162-.166-.27-.315-.312-.326-.092-.67 0-.996.09-.102.029-.213.064-.27.157-.074.118-.03.273.015.405l.216.63c.055.159.112.322.217.45.105.127.273.212.428.17.204-.055.306-.294.34-.512.034-.218.03-.452.14-.64.084-.145.234-.269.225-.438zM41.614 36.589c.236-.06.488.049.668.22.18.171.302.398.42.621.095.18.19.359.287.539.027.051.056.108.05.167-.01.106-.123.167-.224.175-.189.018-.34.08-.494-.034-.39-.29-.62-1.196-.707-1.688z" fill="#E7C59B"/>
    <path fill-rule="evenodd" clip-rule="evenodd" d="M44.052 38.105c.033.038.068.081.07.133 0 .062-.052.115-.11.131a3.777 3.777 0 0 1-.575.007c-.37-.08-.342-.227-.643-.468-.303-.24-.533-.598-.572-.994.186-.084.396-.145.589-.082.17.056.3.2.421.338l.82.935zM41.141 36.256c-.203-.057-.42.108-.49.317-.07.208-.027.442.049.648.075.207.183.401.243.614.046.157.064.323.128.474.064.15.188.288.344.301.163.014.314-.119.377-.278.063-.159.057-.339.038-.51a3.729 3.729 0 0 0-.341-1.19c-.077-.16-.182-.329-.348-.376z" fill="#E7C59B"/>
    <path fill-rule="evenodd" clip-rule="evenodd" d="M40.704 38.166c.091-.28.14-.577.145-.875.003-.22-.02-.45-.134-.634-.113-.185-.335-.31-.535-.247-.15.048-.26.192-.312.347a1.52 1.52 0 0 0-.054.49c.003.34.022.684.129 1.004.05.153.141.316.293.35.111.024.229-.033.307-.12a.877.877 0 0 0 .16-.315z" fill="#E7C59B"/>
    <path d="M99.752 64.608v28.236h-66.92v-8.043h3.703v-2.214h-3.702v-4.44h3.703v-3.326h4.496v-3.327h3.97v-2.605h-3.89v-3.89h3.89v-3.486h4.234v-3.6h3.703v-3.327h4.76v-3.05h3.704V48.21h25.65v3.327h4.23v3.05h3.708l-.005 10.022h4.766z" fill="#E7796B"/>
    <path fill="#CC4F3E" d="M33.548 89.103h4.969v2.79h-4.969zM39.069 89.103h4.969v2.79h-4.969zM44.59 89.103h4.969v2.79H44.59zM33.548 85.685h7.73v2.79h-7.73zM41.83 85.685h7.73v2.79h-7.73zM50.013 89.103h4.969v2.79h-4.969zM55.534 89.103h4.969v2.79h-4.969zM61.055 89.103h4.969v2.79h-4.969zM50.013 85.685h7.73v2.79h-7.73zM58.294 85.685h7.73v2.79h-7.73zM66.477 89.103h4.969v2.79h-4.969zM71.998 89.103h4.969v2.79h-4.969zM77.519 89.103h4.969v2.79h-4.969zM66.477 85.685h7.73v2.79h-7.73zM74.758 85.685h7.73v2.79h-7.73zM82.941 89.103h4.969v2.79h-4.969zM88.462 89.103h4.969v2.79h-4.969zM93.983 89.103h4.969v2.79h-4.969zM82.941 85.685h7.73v2.79h-7.73zM91.223 85.685h7.73v2.79h-7.73zM37.266 82.337h7.73v2.79h-7.73zM45.548 82.337h7.73v2.79h-7.73zM53.73 82.337h7.73v2.79h-7.73zM62.012 82.337h7.73v2.79h-7.73zM70.195 82.337h7.73v2.79h-7.73zM78.476 82.337h7.73v2.79h-7.73zM86.659 82.337h7.73v2.79h-7.73zM94.972 82.244h3.718v2.79h-3.718zM33.548 78.989h7.73v2.79h-7.73zM41.83 78.989h7.73v2.79h-7.73zM50.013 78.989h7.73v2.79h-7.73zM58.294 78.989h7.73v2.79h-7.73zM66.477 78.989h7.73v2.79h-7.73zM74.758 78.989h7.73v2.79h-7.73zM82.941 78.989h7.73v2.79h-7.73zM91.223 78.989h7.73v2.79h-7.73zM37.266 75.642h7.73v2.79h-7.73zM45.548 75.642h7.73v2.79h-7.73zM53.73 75.642h7.73v2.79h-7.73zM62.012 75.642h7.73v2.79h-7.73zM70.195 75.642h7.73v2.79h-7.73zM78.476 75.642h7.73v2.79h-7.73zM86.659 75.642h7.73v2.79h-7.73zM94.972 75.549h3.718v2.79h-3.718zM41.83 72.294h7.73v2.79h-7.73zM50.013 72.294h7.73v2.79h-7.73zM58.294 72.294h7.73v2.79h-7.73zM66.477 72.294h7.73v2.79h-7.73zM74.758 72.294h7.73v2.79h-7.73zM82.941 72.294h7.73v2.79h-7.73zM91.223 72.294h7.73v2.79h-7.73zM45.548 68.947h7.73v2.79h-7.73zM53.73 68.947h7.73v2.79h-7.73zM62.012 68.947h7.73v2.79h-7.73zM70.195 68.947h7.73v2.79h-7.73zM78.476 68.947h7.73v2.79h-7.73zM86.659 68.947h7.73v2.79h-7.73zM94.972 68.853h3.718v2.79h-3.718zM50.013 65.599h7.73v2.79h-7.73zM41.679 65.599h7.73v2.79h-7.73zM58.294 65.599h7.73v2.79h-7.73zM66.477 65.599h7.73v2.79h-7.73zM74.758 65.599h7.73v2.79h-7.73zM82.941 65.599h7.73v2.79h-7.73zM91.223 65.599h7.73v2.79h-7.73zM45.548 62.251h7.73v2.79h-7.73zM53.73 62.251h7.73v2.79h-7.73zM62.012 62.251h7.73v2.79h-7.73zM70.195 62.251h7.73v2.79h-7.73zM78.476 62.251h7.73v2.79h-7.73zM86.659 62.251h7.73v2.79h-7.73zM50.013 58.904h7.73v2.79h-7.73zM58.294 58.904h7.73v2.79h-7.73zM66.477 58.904h7.73v2.79h-7.73zM74.758 58.904h7.73v2.79h-7.73zM82.941 58.904h7.73v2.79h-7.73zM91.254 58.81h3.187v2.79h-3.187zM53.73 55.556h7.73v2.79h-7.73zM62.012 55.556h7.73v2.79h-7.73zM70.195 55.556h7.73v2.79h-7.73zM78.476 55.556h7.73v2.79h-7.73zM86.659 55.556h7.73v2.79h-7.73zM58.294 52.208h7.73v2.79h-7.73zM66.477 52.208h7.73v2.79h-7.73zM74.758 52.208h7.73v2.79h-7.73zM82.941 52.208h7.73v2.79h-7.73zM62.012 48.861h7.73v2.79h-7.73zM70.195 48.861h7.73v2.79h-7.73zM78.476 48.861h7.73v2.79h-7.73z"/>
    <path fill-rule="evenodd" clip-rule="evenodd" d="M92.505 78.642c0-.375-2.714-.679-6.062-.679-3.349 0-6.062.304-6.062.68v15.272c0 .375 2.713.679 6.062.679 3.348 0 6.062-.304 6.062-.679V78.642z" fill="#EB5976"/>
    <path fill-rule="evenodd" clip-rule="evenodd" d="M91.826 78.916c0 .316-2.41.572-5.383.572s-5.383-.256-5.383-.572c0-.315 2.41-.571 5.383-.571s5.383.256 5.383.572z" fill="#363636"/>
    <path d="m89.143 66.788 3.117.83 2.54.78.604-2.047a7.714 7.714 0 0 0-1.024-6.529 7.885 7.885 0 0 0-4.69 5.111l-.547 1.855z" fill="#C4BEBE"/>
    <path d="m87.949 79.29 3.666-12.648 1.292-2.373-.153 2.564-3.666 12.647-1.139-.19z" fill="#929292"/>
    <path d="m84.542 65.57 3.214.302 2.638.35.244-2.117c.265-2.3-.516-4.6-2.128-6.267a7.824 7.824 0 0 0-3.747 5.816l-.221 1.916z" fill="#A9A8A8"/>
    <path d="m85.639 79.488 1.155-14.75.866-2.554.289 2.553-1.155 14.751h-1.155z" fill="#797979"/>
</svg>
