<svg width="212" height="212" viewBox="0 0 212 212" fill="none" xmlns="http://www.w3.org/2000/svg">
    <path d="M149.032 1a147.64 147.64 0 0 1-11.344 56.744 148.243 148.243 0 0 1-32.306 48.106 149.075 149.075 0 0 1-48.35 32.142A149.685 149.685 0 0 1 0 149.28V1h149.032z" stroke="#FF9EB2" stroke-width=".5"/>
    <path d="M118.925 1c0 15.42-3.076 30.689-9.053 44.934a117.323 117.323 0 0 1-25.78 38.094 119.04 119.04 0 0 1-38.581 25.453A120.247 120.247 0 0 1 0 118.419V1h118.925z" stroke="#FF9EB2" stroke-width=".5"/>
    <path d="M90.323 1a88.923 88.923 0 0 1-6.876 34.277 89.525 89.525 0 0 1-19.58 29.058 90.377 90.377 0 0 1-29.302 19.417A90.983 90.983 0 0 1 0 90.57V1h90.323z" stroke="#FF9EB2" stroke-width=".5"/>
    <path d="M179.892 1a177.1 177.1 0 0 1-13.693 68.266 178.285 178.285 0 0 1-38.996 57.873 180.01 180.01 0 0 1-58.361 38.669A181.208 181.208 0 0 1 0 179.387V1h179.892z" stroke="#FF9EB2" stroke-width=".5"/>
    <path d="M211.505 1c0 27.578-5.47 54.885-16.1 80.364a209.898 209.898 0 0 1-45.848 68.128 211.607 211.607 0 0 1-68.617 45.523A212.831 212.831 0 0 1 0 211V1h211.505z" stroke="#FF9EB2" stroke-width=".5"/>
</svg>
