<svg width="100" height="100" viewBox="0 0 100 100" fill="none" xmlns="http://www.w3.org/2000/svg">
    <path fill-rule="evenodd" clip-rule="evenodd" d="M93.296 44.859c-1.176-4.887-.689-9.836-1.556-14.736-.698-3.953-2.801-7.322-5.846-9.815-4.898-4.01-10.455-4.34-16.375-5.362C62.986 13.818 59.462 9.333 54.56 5.3c-9.275-7.633-24.265-7.527-30.964 3.644-3.339 5.566-3.587 12.422-4.103 18.754l-.901 11.058c-.225 2.756-.074 6.39-2.472 8.239-2.165 1.669-5.265 1.473-7.639 2.8-2.271 1.27-4.081 3.28-5.383 5.555-3.18 5.558-3.021 12.127-1.712 18.243H99.06c1.781-9.98-3.507-19.344-5.764-28.734z" fill="#DEDEDE"/>
    <path fill="#DAE5FF" stroke="#A2B7E8" d="M26.486 73.443H47.49v-31.3H26.486zM4.93 29.846h42.56V.781H4.93z"/>
    <path fill="#F7F9FF" stroke="#A2B7E8" d="M7.495 27.25h17.451V3.378H7.496zM27.512 27.25h17.451V3.378h-17.45zM47.68 49.223h26.346v-7.266H47.68z"/>
    <path fill="#DAE5FF" stroke="#A2B7E8" d="M50.065 41.956h7.186v-1.21h-7.186zM64.436 41.956h7.186v-1.21h-7.186z"/>
    <path fill="#F7F9FF" stroke="#A2B7E8" d="M47.68 73.443h26.346V49.222H47.68z"/>
    <path fill="#DAE5FF" stroke="#A2B7E8" d="M52.465 68.599H69.23V54.067H52.465z"/>
    <ellipse cx="51.262" cy="45.589" rx="1.198" ry="1.211" fill="#DAE5FF" stroke="#A2B7E8"/>
    <ellipse cx="56.062" cy="45.589" rx="1.198" ry="1.211" fill="#DAE5FF" stroke="#A2B7E8"/>
    <ellipse cx="29.895" cy="45.589" rx="1.198" ry="1.211" fill="#A2B7E8"/>
    <path fill="#DAE5FF" stroke="#A2B7E8" d="M4.93 73.443h21.556v-31.3H4.93z"/>
    <ellipse cx="22.709" cy="45.589" rx="1.198" ry="1.211" fill="#A2B7E8"/>
    <path fill="#DAE5FF" stroke="#A2B7E8" d="M74.188 73.443h21.004V41.956H74.188z"/>
    <ellipse cx="77.438" cy="45.589" rx="1.198" ry="1.211" fill="#A2B7E8"/>
    <path d="m50.074 40.745-1.884-2.857a.5.5 0 0 1 .418-.776h10.119a.5.5 0 0 1 .417.776l-1.884 2.857h-7.186z" fill="#F7F9FF" stroke="#A2B7E8"/>
    <path d="m58.457 38.929 3.593-1.817h4.79" stroke="#A2B7E8"/>
    <path fill="#DAE5FF" stroke="#A2B7E8" d="M74.021 29.846h21.004V.781H74.021zM54.123 17.55h13.266V.782H54.123zM47.49 27.051h26.531L67.39 17.55H54.123l-6.633 9.502z"/>
    <path d="M47.49 29.846h26.531v-2.795h-26.53v2.795z" fill="#DAE5FF" stroke="#A2B7E8"/>
    <path fill="#F7F9FF" stroke="#A2B7E8" d="M76.785 27.051h15.477V3.576H76.785z"/>
    <path fill-rule="evenodd" clip-rule="evenodd" d="M.713 74.002c.127 5.35 1.566 12.65 6.09 16.436 3.46 2.894 9.57 4.292 14.458 4.51 4.888.217 9.799-.287 14.678.037 7.489.498 12.76 1.152 19.955 2.958 7.195 1.807 15.004 3.005 22.146 1.06 4.508-1.228 8.516-3.7 11.248-6.94 1.56-1.848 2.708-3.927 4.344-5.729 1.64-1.802 3.75-3.308 5.129-5.257 1.378-1.95 1.853-5.326.132-7.075H.713z" fill="#EDEDED"/>
    <path fill-rule="evenodd" clip-rule="evenodd" d="M18.814 61.289c-.175-.5.035-1.327.116-1.85.092-.6.146-.984.097-1.514.77-.027 2.04.017 2.81-.01-.139.481.197.99.637 1.253.44.263.965.347 1.467.47.502.125 1.02.314 1.331.714.109.14.189.308.19.484 0 .067-.017.39-.044.453h-6.604z" fill="#363636"/>
    <path fill-rule="evenodd" clip-rule="evenodd" d="M18.58 26.046c.887 2.014 2.26 3.78 3.46 5.633 1.2 1.853 3.305 6.704 3.442 8.892.123 1.963-.504 3.885-1.01 5.788-.927 3.487-2.059 8.31-2.195 11.91l-3.3.41c-.342-4.545-.081-10.43 1.137-14.83.087-.311.181-.638.11-.954-.057-.245-.208-.457-.356-.661-2.452-3.394-5.949-9.61-8.401-13.003a72.883 72.883 0 0 0 6.616-4.37l.497 1.184z" fill="#1C2F59"/>
    <path fill-rule="evenodd" clip-rule="evenodd" d="M11.99 11.9c-.627.006-1.314.074-1.76.505-.434.422-.515 1.094-.387 1.679.205.94.905 1.761 1.813 2.132.726.296 1.536.309 2.323.317a42.16 42.16 0 0 0 2.291-.053c.302-1.293.424-2.683.44-4.17-1.57-.203-3.138-.423-4.72-.41z" fill="#D74663"/>
    <path fill-rule="evenodd" clip-rule="evenodd" d="M25.595 5.183c-.187-.01-.353-.126-.473-.266-.267-.311-.347-.752-.261-1.15.125-.58.564-1.063 1.06-1.377.1-.064.211-.108.323-.147a5.898 5.898 0 0 1 2.164-.335c.053.17-.038.36-.182.47a.724.724 0 0 1-.164.093c.216.002.432.009.647.027.039.003.082.007.11.033.06.05.03.147-.012.213a.821.821 0 0 1-.11.134l.022-.002c.036.21-.137.406-.337.489-.2.084-.424.084-.64.107-.41.044-.807.176-1.165.376a.484.484 0 0 0-.22.592c.03.077.058.159.04.239-.02.101-.108.176-.191.24-.178.139-.384.278-.611.264z" fill="#D2AE80"/>
    <path fill-rule="evenodd" clip-rule="evenodd" d="M27.588 3.496a1.087 1.087 0 0 0-.934.425c-.104.142-.17.307-.264.456-.094.15-.227.289-.402.327a.548.548 0 0 1-.464-.138c0-.153-.013-.308-.01-.461.008-.3.074-.594.141-.885.051-.221.142-.545.362-.614.213-.067.37-.158.574-.274.212-.12.48-.084.688-.212.206-.128.364-.378.26-.595-.652.059-.723.035-1.323.29-.173.073-.916.34-1.057.462-.292.251-.42.635-.65.94-.13.17-.293.32-.38.514-.085.194-.113.39-.11.748-.046.689-.095 1.337-.293 2.016h-.022c-.177.419-.343.833-.509 1.242l-.01.018c.001 0 .002 0 .003.002-.6 1.476-1.204 2.878-2.358 4.059-.247.252-.512.504-.844.636-.39.156-.827.13-1.247.092a52.54 52.54 0 0 1-2.029-.233c-.016 1.486-.138 2.876-.44 4.169 1.435-.063 2.891-.155 4.272-.14.632.006 1.306 0 1.831-.34.475-.308.742-.836.962-1.35.458-1.062.852-2.023 1.202-3.124.433-1.363.499-1.623.887-3.408.027-.125.26-.807.25-.934 0-.014-.008-.025-.01-.038.166-.344.338-.643.504-.786.227-.196.478-.384.608-.65.138-.282.124-.615.252-.9.157-.347.497-.573.763-.848.067-.07.135-.155.124-.25-.016-.139-.184-.206-.327-.216zM6.52 8.452l.056-.02-.055.02z" fill="#E7C59B"/>
    <path fill-rule="evenodd" clip-rule="evenodd" d="m14.563 83.853-1.004-.133 6.507-46.974h-9.379L4.162 83.853l-1.004-.133 6.644-47.962h11.423l-6.662 48.095z" fill="#797979"/>
    <path fill-rule="evenodd" clip-rule="evenodd" d="M6.302 65.425h10.51v-.988H6.302v.988zM7.981 52.96h10.51v-.988H7.98v.988zM9.552 41.289h10.51V40.3H9.552v.988zM4.677 76.992h10.51v-.988H4.677v.988z" fill="#797979"/>
    <path fill-rule="evenodd" clip-rule="evenodd" d="M28.412 81.8 21.89 36.746h-9.378l6.503 44.916-1.003.138-6.666-46.042H22.77l6.645 45.904-1.003.138z" fill="#797979"/>
    <path fill-rule="evenodd" clip-rule="evenodd" d="M15.086 62.209h10.51v-.988h-10.51v.988zM13.914 50.449h10.509v-.988h-10.51v.988zM12.512 41.092h10.51v-.988h-10.51v.988zM17.387 75.251h10.51v-.988h-10.51v.988z" fill="#797979"/>
    <path fill-rule="evenodd" clip-rule="evenodd" d="M10.23 60.667c.056.778.49 1.52 1.147 1.964.405.273.887.436 1.257.753.37.317.598.883.319 1.279l-4.422.02a2.68 2.68 0 0 0-.708-1.187c-.355-.346-.83-.63-.962-1.104-.102-.36.027-.741.154-1.095l.397-1.104c.046-.126.102-.264.226-.321.107-.049.233-.022.347.008.835.218 1.466.423 2.244.787z" fill="#363636"/>
    <path fill-rule="evenodd" clip-rule="evenodd" d="M16.386 29.487a42.54 42.54 0 0 1 2.934 12.228c.141 1.63.184 3.304-.31 4.867-.553 1.745-1.73 3.224-2.791 4.727a44.145 44.145 0 0 0-5.275 9.97c-1.118-.14-2.71-.989-3.827-1.13 1.165-4.38 2.338-7.322 4.272-10.275 1.155-1.764 2.123-2.42 2.178-4.512.033-1.272-.48-2.489-.985-3.662L8.093 31.272c2.4-.474 5.561-2.193 7.597-3.519l.696 1.734z" fill="#2C457E"/>
    <path fill-rule="evenodd" clip-rule="evenodd" d="M9.594 37.6c.158-.401.53-.681.902-.913a8.99 8.99 0 0 1 4.443-1.33 17.462 17.462 0 0 1 1.776 6.244 17.176 17.176 0 0 1-5.008 2.407 33.249 33.249 0 0 1-2.01-4.97c-.148-.468-.283-.98-.103-1.438z" fill="#202F51"/>
    <path fill-rule="evenodd" clip-rule="evenodd" d="M14.417 36.018c.36.044.706.19.984.416a14.182 14.182 0 0 0 1.007-6.767l-.517.03a16.217 16.217 0 0 1-1.474 6.32z" fill="#202F51"/>
    <path fill-rule="evenodd" clip-rule="evenodd" d="M13.997 37.488a.449.449 0 0 1-.454.442.449.449 0 0 1-.454-.442c0-.245.203-.443.454-.443.25 0 .454.198.454.443zM11.2 38.342a.448.448 0 0 1-.454.443.449.449 0 0 1-.455-.443c0-.244.204-.443.454-.443.251 0 .454.199.454.443z" fill="#E09C5D"/>
    <path fill-rule="evenodd" clip-rule="evenodd" d="M17.987 29.74c.453-.495 1.39-1.563 1.455-2.223.035-.364-.098-.72-.228-1.062-.796-2.085-1.487-2.946-2.283-5.03-.706-1.852-1.52-4.936-2.507-6.66-.572-.999-1.286-1.992-2.349-2.473-.859-.39-1.862-.397-2.78-.166-.917.23-1.758.681-2.553 1.184-2.148 1.36-4.036 3.145-5.346 5.29 3.545 4.615 5.962 11.24 7.933 16.673 2.364.781 6.167-2.817 8.658-5.534z" fill="#EB5976"/>
    <path fill-rule="evenodd" clip-rule="evenodd" d="M5.407 18.954c.84.97 1.166 2.284 1.157 3.553-.01 1.27-.325 2.514-.638 3.747l-1.777-3.429a5.729 5.729 0 0 0 1.258-3.871zM10.527 12.531c-.345-.336-.871-.425-1.359-.415-.97.02-1.91.362-2.746.84-.933.535-1.77 1.253-2.337 2.152-.167.263-.312.546-.362.851-.05.306.003.638.2.88.217.268.57.39.908.475 1.352.341 2.846.29 4.074-.36 1.227-.647 2.124-1.953 2.053-3.311-.022-.405-.137-.825-.43-1.112z" fill="#D74663"/>
    <path fill-rule="evenodd" clip-rule="evenodd" d="M4.211 16.241c.126.346.536.498.905.57 1.04.204 2.156.095 3.098-.38.943-.476 1.695-1.329 1.957-2.33.09-.345.124-.715.01-1.052-.115-.337-.4-.634-.758-.697-.29-.05-.585.054-.858.164-1.519.608-2.97 1.463-4.01 2.703-.243.29-.474.668-.344 1.022z" fill="#E7C59B"/>
    <path fill-rule="evenodd" clip-rule="evenodd" d="M3.32 10.887c-.049.11-.007.238.034.352l1.514 4.173c1.668-.058 3.273-1.067 4.066-2.557A10.702 10.702 0 0 1 6.062 9.54l-2.483 1.14c-.102.047-.213.103-.259.207z" fill="#E7C59B"/>
    <path fill-rule="evenodd" clip-rule="evenodd" d="M7.684 11.718A10.714 10.714 0 0 1 6.062 9.54l-2.483 1.14a.792.792 0 0 0-.169.103c.883 1.262 2.63 1.754 4.274.935z" fill="#D2AE80"/>
    <path fill-rule="evenodd" clip-rule="evenodd" d="m6.939 7.514.823 2.402c.06.175.12.361.07.539-.04.138-.142.255-.25.362-.61.596-1.5.966-2.414 1.003-.914.036-1.84-.262-2.508-.807-.58-.472-.955-1.104-1.237-1.75-.26-.597-.452-1.239-.34-1.87.126-.72.65-1.361 1.335-1.778.686-.415 1.52-.618 2.353-.665.505.372 1.048.803 1.116 1.377.018.143.007.299.1.417.15.187.474.182.678.324.154.107.218.282.274.446z" fill="#E7C59B"/>
    <path fill-rule="evenodd" clip-rule="evenodd" d="M5.896 4.13a.827.827 0 0 1-.364.216c.114-.308.134-.648.058-.967-.46.405-1.088.574-1.698.687-.61.112-1.239.185-1.8.445-.56.26-1.055.756-1.1 1.36-.119-.07-.28-.03-.384.06-.104.09-.161.219-.208.346a3.67 3.67 0 0 0 .173 2.911 3.826 3.826 0 0 0 2.278 1.89c-.08-.425-.16-.85-.238-1.275-.244-.078-.49-.156-.712-.282-.222-.126-.42-.305-.521-.535-.101-.23-.092-.514.064-.712.156-.2.47-.278.686-.144.082.138.169.28.3.376.131.096.32.136.46.053a3.55 3.55 0 0 1-.818-1.555c-.044-.181-.065-.393.06-.535.092-.106.24-.143.38-.175.691-.157 1.391-.318 2.015-.648.624-.329 1.173-.852 1.37-1.516z" fill="#363636"/>
    <path fill-rule="evenodd" clip-rule="evenodd" d="M8.69 39.813c.074.057.153.11.213.18.135.16.231.352.388.493.156.14.41.213.579.089a3.031 3.031 0 0 1-.342-.784l-.839.022z" fill="#E7C59B"/>
    <path fill-rule="evenodd" clip-rule="evenodd" d="M4.485 25.114c.009-.042.014-.079.025-.12.214-.916.735-2.037 1.062-2.92.326-.882.263-2.418-.032-3.311-.295-.893-1.166-1.652-2.127-1.59-.687.043-1.296.487-1.686 1.04-.39.554-.593 1.21-.77 1.859a27.517 27.517 0 0 0-.826 4.317c1.451.634 2.903.813 4.354.725z" fill="#EB5976"/>
    <path fill-rule="evenodd" clip-rule="evenodd" d="M9.44 39.483c-.01-.046-.017-.093-.045-.131a.312.312 0 0 0-.09-.073 3.73 3.73 0 0 1-.933-.838c-.04-.051-.08-.104-.133-.143-.085-.06-.193-.075-.296-.092a6.331 6.331 0 0 1-1.08-.274 2.026 2.026 0 0 1-.5-.237c-.185-.128-.328-.305-.465-.481-.045-.058-.086-.12-.13-.179-.505-1.53-.755-2.739-1.148-4.361-.636-2.63-.822-4.55-.135-7.56-1.451.088-2.903-.091-4.354-.725-.208 1.934-.184 3.883.184 5.793.617 3.203 2.153 6.163 3.964 8.91.378.863.75 1.726 1.3 2.492a.74.74 0 0 0 .192.204c.11.068.244.08.366.12.175.056.326.169.5.229.173.06.397.05.503-.097.02-.029.037-.062.067-.081.033-.02.076-.018.114-.013.114.017.222.062.337.067.115.005.245-.045.279-.153.012-.041.01-.087.029-.125.063-.12.25-.05.388-.061.273-.02.369-.377.605-.511.092-.052.2-.067.299-.107.099-.04.195-.118.198-.223.003-.129-.131-.215-.25-.273-.226-.111-.46-.218-.655-.376-.196-.158-.354-.377-.376-.624.19.04.36.136.514.253l.838-.022c-.03-.102-.068-.202-.087-.308z" fill="#E7C59B"/>
    <path fill-rule="evenodd" clip-rule="evenodd" d="M68.847 79.047a85.794 85.794 0 0 1-6.416-.246A9.384 9.384 0 0 1 62.58 76a6.465 6.465 0 0 0 2.131-.688c-.076.502.249.997.676 1.287.429.29.947.417 1.451.544.505.128 1.023.268 1.435.578.413.31.7.835.573 1.328z" fill="#363636"/>
    <path fill-rule="evenodd" clip-rule="evenodd" d="M59.027 42.027c.452-.016 1.798-.03 2.187.195.568.33.38 2.45.506 3.082 2.084 10.601 4.032 19.627 3.446 30.718-.938.492-2.405.48-3.469.437-.736-8.047-3.17-15.664-5.954-23.274-1.297-3.545-2.674-5.593-1.766-10.976l5.05-.182z" fill="#1C2F59"/>
    <path fill-rule="evenodd" clip-rule="evenodd" d="M53.157 78.952c.408.157.835.305 1.159.594.323.289.52.763.342 1.155a75.921 75.921 0 0 1-7.268-.51c-.178-.605-.127-1.257.038-1.865.165-.609.44-1.183.713-1.754.904.15 1.825.199 2.74.144.022.557.35 1.07.783 1.434.431.364.96.599 1.492.802z" fill="#363636"/>
    <path fill-rule="evenodd" clip-rule="evenodd" d="m50.561 41.675-.41 3.164c-1.475 3.984-.594 7.287-.642 11.522-.082 7.15-.44 13.696-1.897 20.703.978.78 2.442.883 3.903.088 1.875-5.991 3.343-12.073 4.694-18.197 1.216-5.516 2.084-11.09 2.355-16.727-2.444-.084-5.558-.47-8.003-.553z" fill="#2C457E"/>
    <path fill-rule="evenodd" clip-rule="evenodd" d="M63.288 24.64c-.83.786-1.148 1.137-1.468 2.15-.32 1.012-.165 2.108.08 3.14.235.994.564 1.983 1.002 2.914 1.21-.482 2.3-1.273 3.373-2.262-.71-1.856-1.29-3.822-2.988-5.942z" fill="#D74663"/>
    <path fill-rule="evenodd" clip-rule="evenodd" d="M75.46 26.322c.105-.181.273-.444.487-.448.206-.004.37-.044.581-.094.22-.052.448.05.665-.01.219-.06.426-.24.392-.458-.591-.117-.647-.156-1.247-.087-.173.02-.903.065-1.061.136-.326.146-.543.453-.83.663-.16.117-.345.207-.475.356-.128.149-.206.315-.301.632-.227.597-.448 1.158-.808 1.707-1.312 1.27-2.944 2.197-4.523 3.149-.393.237-.784.487-1.14.773l-.006-.011c-.37-.669-.653-1.35-.92-2.048-1.073.989-2.162 1.78-3.371 2.262.727 1.548 1.755 2.94 3.155 3.937.133.095.28.189.444.189.021 0 .041-.007.061-.01a.619.619 0 0 0 .248.12c.27.054.536-.09.768-.236 2.644-1.665 4.609-4.138 6.458-6.637.357-.419.743-.85 1.022-.976.254-.115.526-.216.714-.418.198-.213.277-.511.468-.73.232-.266.594-.378.904-.552.079-.044.162-.102.178-.19.024-.126-.106-.23-.23-.275a1.016 1.016 0 0 0-.94.135c-.132.099-.235.227-.359.334-.123.108-.278.197-.444.186a.497.497 0 0 1-.372-.242c.042-.136.073-.276.117-.411.087-.262.227-.505.365-.746z" fill="#E7C59B"/>
    <path fill-rule="evenodd" clip-rule="evenodd" d="M56.057 23.5c-.838-.025-1.748.005-2.406.512-.584.45-.844 1.18-1.068 1.873-1.89 5.84-2.94 11.776-2.85 17.9 4.233-.389 8.199-.455 12.45-.473-.355-3.445-.743-6.206.152-9.557.363-1.362.932-2.55 1.351-3.896.42-1.348.66-3.247-.426-5.246-2.633-.785-4.451-1.029-7.203-1.112z" fill="#EB5976"/>
    <path fill-rule="evenodd" clip-rule="evenodd" d="M61.642 26.923c.341-.273.622-.632.737-1.047.115-.416.046-.89-.236-1.22-.236-.276-.588-.427-.934-.548-.803-.279-1.643-.44-2.487-.553-.613-.081-1.261-.133-1.826.112-.163.07-.326.177-.386.342-.049.135-.018.285.015.425.217.898.58 1.805 1.289 2.418a3.02 3.02 0 0 0 1.9.724 3.022 3.022 0 0 0 1.928-.653zM55.035 26.145c1.213 1.298 1.519 3.191 1.367 4.941-.15 1.75-.698 3.443-.968 5.179a16.48 16.48 0 0 0 .371 6.788l-2.161.046-3.436-.01c-.364-4.235.478-8.484 1.622-12.584.477-1.706 1.744-3.312 3.205-4.36z" fill="#D74663"/>
    <path fill-rule="evenodd" clip-rule="evenodd" d="M61.28 24.43c-.07-.85.265-3.02.197-3.87l-3.258 1.18c-.242.65-.49 1.355-.647 2.03-.331.013-.316.136-.643.187.07 1.044.593 2.082 1.49 2.656.896.575 2.17.604 3.014-.04.43-.329.743-.88.584-1.39-.108-.346-.399-.584-.738-.753z" fill="#E7C59B"/>
    <path fill-rule="evenodd" clip-rule="evenodd" d="m61.035 20.72-2.816 1.02c-.184.496-.36 1.023-.51 1.545 1.926.076 3.034-1.056 3.325-2.566z" fill="#D2AE80"/>
    <path fill-rule="evenodd" clip-rule="evenodd" d="M59.163 15.883c-.498-.02-1.096.018-1.343.411-.206.328-.056.748-.164 1.113-.08.266-.29.481-.452.715-.38.55-.492 1.224-.447 1.872.044.647.236 1.277.426 1.903.075.246.16.505.366.677.237.198.586.238.907.221.874-.046 1.98-.356 2.62-.898.64-.541.834-1.308 1.265-2 .407-.654.787-1.396.618-2.131-.16-.693-.792-1.234-1.508-1.515-.715-.28-1.51-.338-2.288-.368z" fill="#E7C59B"/>
    <path fill-rule="evenodd" clip-rule="evenodd" d="m58.1 15.056.383.213c-.324.03-.63.212-.804.48a1.043 1.043 0 0 0-.11.913.71.71 0 0 1 .425-.309c.267.621.904 1.076 1.592 1.136a.244.244 0 0 1 .085-.286c.05.16.219.258.383.308.164.049.34.067.493.145.244.121.393.376.45.636.055.26-.052.932-.076 1.197.437-.082.478-.6.676-.549.197.052.197.106.248.3.05.192.03.395.01.594-.022.216-.048.442-.166.627-.119.185-.36.315-.57.238-.16.353-.146.776.036 1.118a9.66 9.66 0 0 0 1.822-1.166l-.22-.057c.94-.831 1.297-2.231.867-3.395.069-.555-.361-1.057-.841-1.365-.48-.308-1.036-.505-1.464-.877l-.051.335a6.108 6.108 0 0 0-3.168-.236z" fill="#363636"/>
    <path fill-rule="evenodd" clip-rule="evenodd" d="M54.55 31.68c.165-.621.355-1.236.577-1.84.377-1.027.834-2.037 1.012-3.113.178-1.076-.163-2.363-.87-3.208l-1.013.132c-.94.142-1.748.771-2.279 1.54-.532.77-.82 1.672-1.055 2.57a25.96 25.96 0 0 0-.608 3.128c1.314.6 2.776.89 4.235.79z" fill="#EB5976"/>
    <path fill-rule="evenodd" clip-rule="evenodd" d="M57.767 48.88c.11.178.176.381.31.542.133.161.372.27.559.171a3.001 3.001 0 0 1-.262-1.14c-.001-.047-.002-.096-.024-.138-.018-.034-.049-.06-.078-.085a3.68 3.68 0 0 1-.796-.962c-.033-.056-.064-.114-.112-.16-.074-.071-.178-.102-.277-.134a6.273 6.273 0 0 1-1.026-.425 2.255 2.255 0 0 1-.388-.25c-2.025-4.57-2.413-9.805-1.124-14.62a8.797 8.797 0 0 1-4.235-.79c-.708 5.294-.038 10.305 2.376 15.1.083.164.31.576.53.946.286 1.036.529 2.086 1.019 3.043a.722.722 0 0 0 .16.229c.097.083.228.114.344.171.164.08.296.214.458.298.163.084.387.106.514-.024.024-.026.045-.056.078-.07.036-.016.078-.008.115.003.11.033.21.093.323.114.113.022.25-.01.298-.11.019-.04.023-.085.048-.12.081-.11.105-.094.231-.035.091.041.411.149.665.05.1-.039-.38-.926-.55-1.11-.17-.185-1.036-.554.189-1.027.27.1.505.291.655.533z" fill="#E7C59B"/>
</svg>
