<svg width="47" height="50" viewBox="0 0 47 50" fill="none" xmlns="http://www.w3.org/2000/svg">
    <path d="M31.227 29.396c.61 0 1.208-.186 1.716-.534a3.15 3.15 0 0 0 1.137-1.42 3.24 3.24 0 0 0 .176-1.83 3.19 3.19 0 0 0-.846-1.62 3.066 3.066 0 0 0-1.58-.867 3.018 3.018 0 0 0-1.785.18 3.106 3.106 0 0 0-1.386 1.166c-.339.52-.52 1.133-.52 1.76 0 .839.325 1.644.905 2.238a3.05 3.05 0 0 0 2.183.927zm0-4.611c.279 0 .551.085.783.244.232.158.413.384.52.648a1.479 1.479 0 0 1-.306 1.575 1.378 1.378 0 0 1-1.536.313 1.418 1.418 0 0 1-.633-.532 1.471 1.471 0 0 1 .175-1.825c.264-.27.623-.423.997-.423zM33.87 34.755c0 .627.181 1.239.52 1.76.34.52.822.926 1.386 1.165.565.24 1.185.303 1.784.18a3.065 3.065 0 0 0 1.582-.866 3.19 3.19 0 0 0 .845-1.62 3.24 3.24 0 0 0-.176-1.83 3.15 3.15 0 0 0-1.137-1.42 3.034 3.034 0 0 0-1.716-.534 3.05 3.05 0 0 0-2.183.927 3.207 3.207 0 0 0-.905 2.238zm4.498 0c0 .286-.083.566-.238.803a1.418 1.418 0 0 1-.632.533c-.258.11-.541.138-.815.082a1.399 1.399 0 0 1-.722-.395 1.457 1.457 0 0 1-.386-.74 1.48 1.48 0 0 1 .08-.836c.107-.264.288-.49.52-.648a1.385 1.385 0 0 1 1.78.18c.264.27.413.638.413 1.021zM37.758 23.594l-8.944 12.819 1.365 1 8.944-12.817-1.365-1.002z" fill="#EB5976"/>
    <path d="M39.954 0a11.784 11.784 0 0 1-2.467 5.497 4.088 4.088 0 0 0-2.31-1.244 4.032 4.032 0 0 0-2.574.427l-7.326.138a7.38 7.38 0 0 0-5.202 2.262L1.228 26.41A4.357 4.357 0 0 0 0 29.453c0 1.14.442 2.234 1.228 3.041l5.161 5.3a4.288 4.288 0 0 0 1.947 2.58l13.803 8.173c.57.346 1.21.55 1.872.594a4.053 4.053 0 0 0 2.517.86H42.47c1.113 0 2.18-.453 2.967-1.26a4.357 4.357 0 0 0 1.229-3.041V18.367c-.004-2-.761-3.92-2.115-5.36l-5.874-6.245A13.279 13.279 0 0 0 41.632.206L39.954 0zM2.412 27.632 21.267 8.293a5.801 5.801 0 0 1 4.044-1.72l1.947-.043-2.66.782a7.585 7.585 0 0 0-4.447 3.57L6.817 34.516a4.492 4.492 0 0 0-.37.86l-4.035-4.104a2.615 2.615 0 0 1-.732-1.819c0-.682.263-1.336.732-1.82zm6.78 11.27a2.537 2.537 0 0 1-.74-.664 2.644 2.644 0 0 1-.184-2.863l13.334-23.666a5.9 5.9 0 0 1 3.457-2.78l4.43-1.298-5.034 5.36a7.847 7.847 0 0 0-2.123 5.376V45.7c.003.363.054.725.151 1.075L9.192 38.902zm35.796-20.535V45.7c0 .684-.265 1.34-.737 1.824a2.486 2.486 0 0 1-1.78.756H26.528a2.486 2.486 0 0 1-1.78-.756 2.614 2.614 0 0 1-.738-1.825v-27.33a6.101 6.101 0 0 1 1.679-4.182L32.72 6.71a2.535 2.535 0 0 1 1.783-.738c.665 0 1.304.265 1.783.738a7.55 7.55 0 0 1-.663.448 1.648 1.648 0 0 0-2.034-.115 1.717 1.717 0 0 0-.65.88c-.115.357-.113.745.006 1.102.12.357.35.663.657.873a1.647 1.647 0 0 0 2.033-.136 1.73 1.73 0 0 0 .542-.953c.455-.25.89-.538 1.3-.86l5.874 6.272a6.102 6.102 0 0 1 1.636 4.146z" fill="#EB5976"/>
</svg>
