<svg width="45" height="33" viewBox="0 0 45 33" fill="none" xmlns="http://www.w3.org/2000/svg">
    <path d="M28.507 18.14a.757.757 0 0 0-.209-1.045.747.747 0 0 0-1.04.21 5.763 5.763 0 0 1-6.809 2.234.744.744 0 0 0-.363-.15c-2.02-.918-3.398-2.984-3.398-5.364V10.92a5.073 5.073 0 0 0 2.431-2.115 14.264 14.264 0 0 0 9.1 2.415c0 2.826-.022 2.734.06 2.928.116.277.388.46.69.46a2.441 2.441 0 0 0 2.434-2.442V5.994C31.405 2.691 28.736.002 25.453 0h-4.429a5.92 5.92 0 0 0-5.342 3.338 2.533 2.533 0 0 0-2.009 2.478V8.31c0 .416.335.754.749.754s.75-.337.751-.753V5.817c0-.564.457-1.023 1.018-1.023a.75.75 0 0 0 .697-.473 4.434 4.434 0 0 1 4.137-2.813h4.427c2.456.002 4.453 2.014 4.451 4.486v6.171a.933.933 0 0 1-.183.555v-2.336a.752.752 0 0 0-.849-.748 12.81 12.81 0 0 1-9.58-2.564.748.748 0 0 0-1.158.332c-.42 1.117-1.295 1.939-2.4 2.254a.754.754 0 0 0-.545.726v3.64c0 2.881 1.613 5.397 4.01 6.61a2.817 2.817 0 0 1-1.846 2.17c-3.125 1.083-2.994 1.026-3.317 1.185l-.17-.059a2.306 2.306 0 0 1-1.5-1.722 6.337 6.337 0 0 0 2.117-1.813.757.757 0 0 0-.149-1.056.747.747 0 0 0-1.05.15 4.827 4.827 0 0 1-4.245 1.923c-2.492-.192-4.444-2.35-4.444-4.91v-2.579a4.447 4.447 0 0 0 2.007-1.73 12.312 12.312 0 0 0 3.619 1.634.755.755 0 0 0 .387-1.457 10.859 10.859 0 0 1-3.827-1.9.749.749 0 0 0-1.158.332c-.348.925-1.07 1.604-1.983 1.865a.746.746 0 0 0-.381.258V9.519c0-.419.339-.767.764-.767a.75.75 0 0 0 .697-.474 3.689 3.689 0 0 1 3.441-2.34h2.797c.414 0 .75-.337.75-.754a.752.752 0 0 0-.75-.754H8.16a5.176 5.176 0 0 0-4.647 2.871 2.277 2.277 0 0 0-1.756 2.217v5.49c0 .91.558 1.681 1.358 1.992a6.479 6.479 0 0 0 3.367 5.197 2.306 2.306 0 0 1-1.503 1.733l-2.422.84A3.818 3.818 0 0 0 0 28.378v3.012c0 .416.336.754.75.754s.75-.337.75-.754v-3.012a2.31 2.31 0 0 1 1.548-2.183c0-.01-.024.008 2.277-.79a4.844 4.844 0 0 0 3.773 2.258.752.752 0 0 0 .8-.701.753.753 0 0 0-.698-.804 3.348 3.348 0 0 1-2.549-1.47c.601-.502 1.038-1.18 1.244-1.942a6.29 6.29 0 0 0 3.055.002c.259.956.88 1.78 1.734 2.286a4.34 4.34 0 0 0-1.059 2.841v3.515c0 .416.336.754.75.754.415 0 .75-.337.75-.754v-3.515a2.82 2.82 0 0 1 1.889-2.665l2.827-.98a4.323 4.323 0 0 0 2.777-3.058 7.26 7.26 0 0 0 7.89-3.031z" fill="#222"/>
    <path d="m42.443 24.77-2.422-.84a2.306 2.306 0 0 1-1.5-1.721 6.38 6.38 0 0 0 3.368-5.185 2.155 2.155 0 0 0 1.42-2.03V9.67c.002-2.892-2.323-5.24-5.202-5.24-3.982-.001-3.962-.009-4.284.022a.753.753 0 0 0-.675.822.75.75 0 0 0 .817.68c.222-.022.106-.017 4.142-.016 2.042 0 3.704 1.665 3.703 3.732v3.351a.747.747 0 0 0-.752-.377 10.85 10.85 0 0 1-6.645-1.213.748.748 0 0 0-1.016.306.756.756 0 0 0 .305 1.022 12.304 12.304 0 0 0 6.705 1.465v2.348a4.883 4.883 0 0 1-1.549 3.563 4.785 4.785 0 0 1-7.171-.72.747.747 0 0 0-1.048-.17.757.757 0 0 0-.169 1.053 6.355 6.355 0 0 0 2.167 1.902 2.306 2.306 0 0 1-1.501 1.73l-.17.058c-.322-.158-.198-.104-3.317-1.185a2.815 2.815 0 0 1-1.097-.7.747.747 0 0 0-1.06-.016.757.757 0 0 0-.016 1.066c.134.14.28.269.432.389-.988 1.543-2.943 2.266-4.71 1.66a.749.749 0 0 0-.952.47.755.755 0 0 0 .468.957c2.488.855 5.187-.18 6.52-2.374l2.75.953a2.821 2.821 0 0 1 1.891 2.667v3.514c0 .417.336.755.75.755s.75-.338.75-.755v-3.514a4.34 4.34 0 0 0-1.058-2.841 3.821 3.821 0 0 0 1.733-2.286c.996.25 2.055.25 3.057.002.206.76.642 1.437 1.242 1.936a3.349 3.349 0 0 1-2.549 1.471.753.753 0 0 0-.697.804c.028.416.387.73.8.701a4.844 4.844 0 0 0 3.773-2.257l2.276.79a2.31 2.31 0 0 1 1.549 2.183v3.011c0 .417.335.755.75.755.414 0 .75-.338.75-.755V28.38a3.818 3.818 0 0 0-2.558-3.61z" fill="#222"/>
</svg>
