<svg width="50" height="50" viewBox="0 0 50 50" fill="none" xmlns="http://www.w3.org/2000/svg">
    <path fill-rule="evenodd" clip-rule="evenodd" d="M9.014 5.334a.522.522 0 0 0-.521.524v3.19c0 .29.233.523.521.523h19.07a.522.522 0 0 0 .521-.523v-3.19a.522.522 0 0 0-.521-.524h-5.06c-.45 0-.854-.287-1.006-.714-.525-1.48-1.92-2.477-3.47-2.477-1.55 0-2.946.996-3.47 2.478a1.07 1.07 0 0 1-1.005.713H9.014zM2.657 50A2.665 2.665 0 0 1 0 47.333V9.048A2.665 2.665 0 0 1 2.657 6.38h3.178a.523.523 0 0 0 .522-.523V4.262c0-.59.479-1.072 1.068-1.072h5.64a.52.52 0 0 0 .45-.261A5.833 5.833 0 0 1 18.55 0c2.062 0 3.99 1.123 5.032 2.93.094.16.266.26.452.26h5.64c.588 0 1.067.481 1.067 1.072v1.596c0 .288.234.523.522.523h3.178a2.665 2.665 0 0 1 2.657 2.667V21.81c0 .59-.48 1.071-1.068 1.071a1.07 1.07 0 0 1-1.067-1.071V9.048a.523.523 0 0 0-.522-.524h-3.178a.523.523 0 0 0-.522.524v1.595c0 .591-.48 1.071-1.067 1.071H7.425a1.07 1.07 0 0 1-1.068-1.07V9.047a.522.522 0 0 0-.522-.524H2.657a.522.522 0 0 0-.521.524v38.285c0 .289.233.524.521.524h23.837a1.07 1.07 0 0 1 0 2.143H2.657z" fill="#EB5976"/>
    <path fill-rule="evenodd" clip-rule="evenodd" d="M9.12 20.968c-.582 0-1.055-.362-1.055-.807 0-.444.473-.806 1.055-.806h18.856c.582 0 1.056.362 1.056.806 0 .445-.474.807-1.056.807H9.12zM9.104 27.42c-.573 0-1.04-.362-1.04-.807 0-.444.467-.806 1.04-.806h10.825c.572 0 1.039.362 1.039.806 0 .445-.467.806-1.04.806H9.104zM9.104 33.87c-.573 0-1.04-.36-1.04-.805 0-.445.467-.807 1.04-.807h10.825c.572 0 1.039.362 1.039.807 0 .445-.467.806-1.04.806H9.104zM9.104 38.71c-.573 0-1.04-.362-1.04-.807 0-.445.467-.806 1.04-.806h10.825c.572 0 1.039.361 1.039.806 0 .445-.467.807-1.04.807H9.104zM36.365 40.322c-.275 0-.535-.105-.73-.296l-3.075-3.019a1.002 1.002 0 0 1 0-1.434c.195-.191.455-.297.73-.297.277 0 .536.106.73.297l1.99 1.952a.507.507 0 0 0 .713 0l5.063-4.97c.195-.192.455-.297.73-.297.276 0 .535.105.73.297a1 1 0 0 1 0 1.433l-6.15 6.038a1.039 1.039 0 0 1-.73.296z" fill="#EB5976"/>
    <path fill-rule="evenodd" clip-rule="evenodd" d="M37.903 26.312c-5.502 0-9.978 4.476-9.978 9.978s4.476 9.979 9.978 9.979c5.503 0 9.979-4.477 9.979-9.98 0-5.5-4.476-9.977-9.979-9.977zm0 22.075c-6.67 0-12.097-5.427-12.097-12.097s5.427-12.096 12.097-12.096S50 29.62 50 36.29s-5.426 12.097-12.097 12.097zM18.548 4.839a.807.807 0 1 1 .001-1.614.807.807 0 0 1-.001 1.614z" fill="#EB5976"/>
</svg>
