<svg width="39" height="45" viewBox="0 0 39 45" fill="none" xmlns="http://www.w3.org/2000/svg">
    <path d="M30.462 14.05V2.24c0-1.235-1.029-2.24-2.294-2.24H9.815C8.55 0 7.521 1.005 7.521 2.24v11.81c0 1.235 1.03 2.24 2.294 2.24h18.353c1.265 0 2.294-1.005 2.294-2.24zm-21.273 0v-1.23l4.575-3.004a.852.852 0 0 1 .907-.015l2.778 1.687c.895.544 2.051.48 2.877-.16l4.27-3.307a.85.85 0 0 1 .912-.08.845.845 0 0 0 1.129-.336.805.805 0 0 0-.344-1.102 2.552 2.552 0 0 0-2.733.242l-4.27 3.307a.852.852 0 0 1-.96.053l-2.778-1.688a2.557 2.557 0 0 0-2.719.048L9.19 10.857V2.24c0-.337.28-.611.625-.611h18.353c.345 0 .626.274.626.61v11.81c0 .338-.28.612-.626.612H9.815a.62.62 0 0 1-.625-.611zm9.803-10.283c-.863 0-1.565.685-1.565 1.527 0 .842.702 1.527 1.565 1.527.862 0 1.564-.685 1.564-1.527 0-.842-.702-1.527-1.564-1.527zm-.105 1.527c0-.134.209-.134.209 0 0 .135-.209.135-.209 0zM39 34.297v7.051C39 43.362 37.322 45 35.26 45h-4.185a.825.825 0 0 1-.834-.815v-5.192H12.409a.825.825 0 0 1-.834-.814c0-.45.373-.815.834-.815h18.666c.492 0 .89.42.827.917.011.087.007-.24.007 5.09h3.35c1.143 0 2.072-.907 2.072-2.023v-7.051c0-1.116-.929-2.023-2.071-2.023H33.98c-1.142 0-2.072.907-2.072 2.023v.726c0 .45-.373.814-.834.814a.825.825 0 0 1-.834-.815v-.725c0-1.88 1.463-3.434 3.337-3.63v-5.333c0-1.507-1.256-2.732-2.799-2.732H20.334v9.163c0 .45-.373.814-.834.814a.825.825 0 0 1-.834-.814v-9.163H8.012c-1.543 0-2.798 1.225-2.798 2.732v1.951c0 .45-.374.814-.834.814a.825.825 0 0 1-.835-.814v-1.951c0-2.405 2.004-4.361 4.467-4.361H30.78c2.463 0 4.467 1.956 4.467 4.361v5.31c2.104 0 3.754 1.661 3.754 3.653zm-11.366 9.888c0 .45-.374.815-.835.815H3.74C1.678 45 0 43.362 0 41.348v-7.051c0-2.014 1.678-3.652 3.74-3.652H5.02c2.062 0 3.74 1.638 3.74 3.652v4.594c0 .45-.373.815-.834.815a.825.825 0 0 1-.834-.815v-4.594c0-1.116-.93-2.023-2.072-2.023H3.74c-1.142 0-2.072.907-2.072 2.023v7.051c0 1.116.93 2.023 2.072 2.023H26.8c.46 0 .834.365.834.814z" fill="#222"/>
</svg>
