<svg width="46" height="45" viewBox="0 0 46 45" fill="none" xmlns="http://www.w3.org/2000/svg">
    <path d="M14.405 27.281V6.844c0-1.24-1.009-2.25-2.25-2.25H7.28c-1.24 0-2.25 1.01-2.25 2.25v1.572a.75.75 0 0 0 1.5 0V6.844a.75.75 0 0 1 .75-.75h4.875a.75.75 0 0 1 .75.75v14.062H9.02a.75.75 0 0 0 0 1.5h3.886v4.875a.75.75 0 0 1-.75.75H7.28a.75.75 0 0 1-.75-.75V13.22h3.756a.75.75 0 0 0 0-1.5H5.78a.75.75 0 0 0-.75.75V27.28c0 1.241 1.01 2.25 2.25 2.25h4.875c1.24 0 2.25-1.009 2.25-2.25z" fill="#222"/>
    <path d="m44.882 25.678-4.967-10.303a3.003 3.003 0 0 0-4.005-1.4l-1.837.886 1.113-1.709a2.998 2.998 0 0 0-.876-4.15l-9.584-6.243a3.004 3.004 0 0 0-4.151.876l-.457.701a.75.75 0 1 0 1.257.819l.457-.701a1.502 1.502 0 0 1 2.075-.438l9.584 6.242c.695.452.89 1.38.438 2.075l-2.465 3.786c-15.065 7.262-14.129 6.803-14.215 6.865a.749.749 0 0 0-.301.48c-.019.105-.012-.744-.012 12.817 0 3.98-3.239 7.219-7.22 7.219-3.98 0-7.218-3.238-7.218-7.219V3c0-.827.673-1.5 1.5-1.5h11.437c.828 0 1.5.673 1.5 1.5v15.626a.75.75 0 0 0 1.5 0v-1.572l1.198-1.837 2.67 1.74a.747.747 0 0 0 .41.12c.744 0 1.033-.972.41-1.378l-2.672-1.74 2.661-4.084a.75.75 0 0 1 1.038-.22l4.085 2.661a.75.75 0 0 1 .219 1.038l-.933 1.432a.75.75 0 0 0 1.257.818l.933-1.431a2.249 2.249 0 0 0-.658-3.114L24.968 8.4a2.249 2.249 0 0 0-3.113.657l-3.42 5.25V3c0-1.654-1.345-3-3-3H3.998c-1.654 0-3 1.346-3 3v33.281C.998 41.09 4.909 45 9.717 45c4.644 0 8.45-3.65 8.705-8.231.498.104.998.038 1.438-.173l18.41-8.875a2.249 2.249 0 0 0 1.05-3.004l-2.118-4.392a2.253 2.253 0 0 0-3.003-1.05l-13.344 6.433a.75.75 0 0 0-.35 1.001l2.048 4.248a.75.75 0 0 0 1.352-.651l-1.723-3.573 12.668-6.106a.75.75 0 0 1 1.001.35l2.117 4.391a.75.75 0 0 1-.35 1.001l-4.391 2.117-1.493-3.097a.75.75 0 1 0-1.352.651l1.494 3.098-12.668 6.106a.752.752 0 0 1-.772-.073V24.064l18.126-8.738a1.502 1.502 0 0 1 2.002.7l4.967 10.303c.36.745.045 1.644-.7 2.003l-20.266 9.77a.75.75 0 0 0 .326 1.425c.266 0-1.065.596 20.591-9.844a3.004 3.004 0 0 0 1.4-4.005z" fill="#222"/>
    <path d="M9.715 38.344a2.065 2.065 0 0 1-2.063-2.063.75.75 0 0 0-1.5 0 3.567 3.567 0 0 0 3.563 3.563 3.567 3.567 0 0 0 3.562-3.563 3.566 3.566 0 0 0-3.562-3.562.75.75 0 0 0 0 1.5c1.137 0 2.062.925 2.062 2.062a2.065 2.065 0 0 1-2.062 2.063z" fill="#222"/>
</svg>
