<svg width="52" height="50" viewBox="0 0 52 50" fill="none" xmlns="http://www.w3.org/2000/svg">
    <path d="M51.9 27.406a20.604 20.604 0 0 0-5.908-12.487A20.385 20.385 0 0 0 35.959 9.4V6.816A3.46 3.46 0 0 0 35.125 0h-7.312a3.46 3.46 0 0 0-.833 6.816v2.592a20.384 20.384 0 0 0-10.002 5.51 20.633 20.633 0 0 0-1.725 1.961.98.98 0 0 0-.076-.004H7.939a1.017 1.017 0 0 0 0 2.035h5.932a20.407 20.407 0 0 0-1.802 3.91H1.016a1.017 1.017 0 0 0 0 2.035h10.48a20.714 20.714 0 0 0-.505 3.91h-4.49a1.017 1.017 0 0 0 0 2.035h4.523c.086 1.317.297 2.627.634 3.91h-6.58a1.016 1.016 0 0 0 0 2.035h7.228a20.436 20.436 0 0 0 4.672 7.237A20.54 20.54 0 0 0 29.457 49.9a20.54 20.54 0 0 0 13.21-3.215c.47-.307.602-.938.296-1.408a1.015 1.015 0 0 0-1.405-.298c-7.268 4.74-17.001 3.716-23.144-2.437-7.207-7.22-7.207-18.966 0-26.185 7.207-7.22 18.934-7.22 26.142 0 6.134 6.144 7.163 15.886 2.446 23.162a1.018 1.018 0 0 0 .298 1.407c.471.306 1.1.172 1.405-.299A20.643 20.643 0 0 0 51.9 27.406zM26.39 3.459c0-.785.638-1.424 1.422-1.424h7.313a1.425 1.425 0 0 1 0 2.848H27.813a1.425 1.425 0 0 1-1.422-1.424zm2.62 5.599v-2.14h4.917v2.136a20.66 20.66 0 0 0-4.917.004z" fill="#EB5976"/>
    <path d="M45.274 42.245a1.02 1.02 0 0 0-1.016 1.017 1.016 1.016 0 1 0 1.734-.72 1.024 1.024 0 0 0-.718-.297zM31.485 13.668c-8.688 0-15.756 7.08-15.756 15.782s7.068 15.782 15.756 15.782S47.24 38.152 47.24 29.45s-7.068-15.782-15.755-15.782zm0 29.53c-7.568 0-13.724-6.168-13.724-13.748 0-7.58 6.156-13.747 13.724-13.747 7.568 0 13.724 6.167 13.724 13.747s-6.157 13.747-13.724 13.747z" fill="#EB5976"/>
    <path d="m37.91 21.576-5.03 5.039a3.132 3.132 0 0 0-2.789 0L27.84 24.36a1.015 1.015 0 0 0-1.437 0 1.019 1.019 0 0 0 0 1.438l2.252 2.256a3.162 3.162 0 0 0 2.83 4.558 3.162 3.162 0 0 0 2.83-4.559l4.883-4.89.148-.148a1.019 1.019 0 0 0 0-1.44 1.014 1.014 0 0 0-1.436 0zm-6.425 9a1.127 1.127 0 0 1 0-2.253 1.127 1.127 0 0 1 0 2.254zM42.344 28.445h-.94a1.016 1.016 0 0 0 0 2.035h.94a1.017 1.017 0 0 0 0-2.035zM21.567 28.42h-.941a1.016 1.016 0 0 0 0 2.035h.94a1.016 1.016 0 0 0 0-2.035zM31.497 20.532c.561 0 1.016-.455 1.016-1.017v-.942a1.017 1.017 0 1 0-2.031 0v.942c0 .562.454 1.017 1.015 1.017zM31.473 38.368c-.561 0-1.016.455-1.016 1.017v.943a1.016 1.016 0 1 0 2.031 0v-.943c0-.562-.455-1.017-1.015-1.017zM1.016 34.71c-.267 0-.53.109-.718.298-.19.19-.298.452-.298.72 0 .268.109.53.298.719.189.189.45.298.718.298.267 0 .529-.11.718-.298.188-.19.297-.452.297-.72 0-.267-.108-.53-.297-.719a1.022 1.022 0 0 0-.718-.298z" fill="#EB5976"/>
</svg>
